# xmcd CD database file
#
# Track frame offsets:
#	150
#	14248
#	35036
#	52455
#	72516
#	91675
#	109863
#	130621
#	145687
#	157243
#	173059
#	190393
#	214179
#	228012
#	247305
#
# Disc length: 3738 seconds
#
# Revision: 3
# Processed by: cddbd v1.5.2PL0 Copyright (c) Steve Scherf et al.
# Submitted via: CDex 1.70beta2
#
DISCID=e40e980f
DTITLE=Silver Mountain - Breakin' Chains
DYEAR=2001
DGENRE=Melodic Power Metal
TTITLE0=Prophet of doom
TTITLE1=Before the storm
TTITLE2=Felo de se
TTITLE3=Man of no present existence
TTITLE4=Scarlet pimpernel
TTITLE5=Maniac
TTITLE6=Axeman and the virgin
TTITLE7=Breakin' chains
TTITLE8=Rider of the night
TTITLE9=A.s.w.a.s.t
TTITLE10=The Butterfly
TTITLE11=Dance around the fire
TTITLE12=Millattack
TTITLE13=Resurrection
TTITLE14=Data
EXTD=YEAR: 2001
EXTT0=
EXTT1=
EXTT2=
EXTT3=
EXTT4=
EXTT5=
EXTT6=
EXTT7=
EXTT8=
EXTT9=
EXTT10=
EXTT11=
EXTT12=
EXTT13=
EXTT14=
PLAYORDER=
